# MagicaVoxel @ Ephtracy

# group
o 

# material
mtllib char.mtl
usemtl palette

# normals
vn -1 0 0
vn 1 0 0
vn 0 0 1
vn 0 0 -1
vn 0 -1 0
vn 0 1 0

# texcoords
vt 0.0605469 0.5
vt 0.505859 0.5
vt 0.537109 0.5
vt 0.873047 0.5
vt 0.978516 0.5
vt 0.982422 0.5
vt 0.994141 0.5

# verts
v -0.5 0.8 -1.49012e-08
v -0.5 0.8 -0.2
v -0.5 0.9 -1.49012e-08
v -0.5 0.9 -0.2
v -0.4 0.2 -0.1
v -0.4 0.2 -0.2
v -0.4 0.3 -0.1
v -0.4 0.3 -0.2
v -0.4 0.5 -0.2
v -0.4 0.5 -0.3
v -0.4 0.6 -1.49012e-08
v -0.4 0.6 -0.1
v -0.4 0.6 -0.2
v -0.4 0.6 -0.3
v -0.4 0.6 -0.4
v -0.4 0.7 -1.49012e-08
v -0.4 0.7 -0.3
v -0.4 0.7 -0.4
v -0.4 0.8 -1.49012e-08
v -0.4 0.8 -0.2
v -0.4 0.8 -0.3
v -0.4 0.8 -0.4
v -0.4 0.9 0.1
v -0.4 0.9 -1.49012e-08
v -0.4 0.9 -0.2
v -0.4 0.9 -0.3
v -0.4 0.9 -0.4
v -0.4 1 0.1
v -0.4 1 -0.3
v -0.3 0 -0.1
v -0.3 0 -0.2
v -0.3 0.1 -0.1
v -0.3 0.1 -0.2
v -0.3 0.2 -1.49012e-08
v -0.3 0.2 -0.1
v -0.3 0.2 -0.2
v -0.3 0.2 -0.3
v -0.3 0.3 -1.49012e-08
v -0.3 0.3 -0.1
v -0.3 0.3 -0.2
v -0.3 0.3 -0.3
v -0.3 0.4 -1.49012e-08
v -0.3 0.4 -0.1
v -0.3 0.4 -0.2
v -0.3 0.4 -0.3
v -0.3 0.5 -1.49012e-08
v -0.3 0.5 -0.1
v -0.3 0.5 -0.2
v -0.3 0.5 -0.3
v -0.3 0.6 0.1
v -0.3 0.6 -1.49012e-08
v -0.3 0.6 -0.1
v -0.3 0.7 0.1
v -0.3 0.7 -1.49012e-08
v -0.3 0.7 -0.3
v -0.3 0.7 -0.4
v -0.3 0.8 -0.3
v -0.3 0.8 -0.4
v -0.3 1 0.1
v -0.3 1 -0.2
v -0.3 1.1 0.1
v -0.3 1.1 -0.2
v -0.2 0.8 -0.4
v -0.2 0.8 -0.5
v -0.2 0.9 -0.4
v -0.2 0.9 -0.5
v 0 0 -0.1
v 0 0 -0.2
v 0 0.1 -0.1
v 0 0.1 -0.2
v 0 0.2 -0.1
v 0 0.2 -0.2
v 0.1 0.9 0.1
v 0.1 0.9 -1.49012e-08
v 0.1 1 0.1
v 0.1 1 -1.49012e-08
v -0.2 0 -0.1
v -0.2 0 -0.2
v -0.2 0.1 -0.1
v -0.2 0.1 -0.2
v -0.2 0.2 -0.1
v -0.2 0.2 -0.2
v -0.2 0.9 0.1
v -0.2 0.9 -1.49012e-08
v -0.2 1 0.1
v -0.2 1 -1.49012e-08
v -0.1 1 0.1
v -0.1 1 -1.49012e-08
v -0.1 1.1 0.1
v -0.1 1.1 -1.49012e-08
v 0 0.8 -0.4
v 0 0.8 -0.5
v 0 0.9 -0.4
v 0 0.9 -0.5
v 0 1 -1.49012e-08
v 0 1 -0.2
v 0 1.1 -1.49012e-08
v 0 1.1 -0.2
v 0.1 0 -0.1
v 0.1 0 -0.2
v 0.1 0.1 -0.1
v 0.1 0.1 -0.2
v 0.1 0.2 -1.49012e-08
v 0.1 0.2 -0.1
v 0.1 0.2 -0.2
v 0.1 0.2 -0.3
v 0.1 0.3 -1.49012e-08
v 0.1 0.3 -0.1
v 0.1 0.3 -0.2
v 0.1 0.3 -0.3
v 0.1 0.4 -1.49012e-08
v 0.1 0.4 -0.1
v 0.1 0.4 -0.2
v 0.1 0.4 -0.3
v 0.1 0.5 -1.49012e-08
v 0.1 0.5 -0.1
v 0.1 0.5 -0.2
v 0.1 0.5 -0.3
v 0.1 0.6 0.1
v 0.1 0.6 -1.49012e-08
v 0.1 0.6 -0.1
v 0.1 0.7 0.1
v 0.1 0.7 -1.49012e-08
v 0.2 0.2 -0.1
v 0.2 0.2 -0.2
v 0.2 0.3 -0.1
v 0.2 0.3 -0.2
v 0.2 0.4 -0.1
v 0.2 0.4 -0.2
v 0.2 0.5 -0.1
v 0.2 0.5 -0.2
v 0.2 0.5 -0.3
v 0.2 0.6 -1.49012e-08
v 0.2 0.6 -0.1
v 0.2 0.6 -0.2
v 0.2 0.6 -0.3
v 0.2 0.6 -0.4
v 0.2 0.7 -1.49012e-08
v 0.2 0.7 -0.4
v 0.2 0.8 -0.1
v 0.2 0.8 -0.3
v 0.2 0.9 0.1
v 0.2 0.9 -1.49012e-08
v 0.2 0.9 -0.1
v 0.2 0.9 -0.3
v 0.2 0.9 -0.4
v 0.2 1 0.1
v 0.2 1 -0.3
v 0.3 0.8 -0.1
v 0.3 0.8 -0.3
v 0.3 0.9 -0.1
v 0.3 0.9 -0.3
v -0.4 0.9 0.1
v -0.4 1 0.1
v -0.3 0.6 0.1
v -0.3 0.7 0.1
v -0.3 1 0.1
v -0.3 1.1 0.1
v -0.2 0.9 0.1
v -0.2 1 0.1
v -0.1 1 0.1
v -0.1 1.1 0.1
v 0.1 0.6 0.1
v 0.1 0.7 0.1
v 0.1 0.9 0.1
v 0.1 1 0.1
v 0.2 0.9 0.1
v 0.2 1 0.1
v -0.5 0.8 -1.49012e-08
v -0.5 0.9 -1.49012e-08
v -0.4 0.6 -1.49012e-08
v -0.4 0.7 -1.49012e-08
v -0.4 0.8 -1.49012e-08
v -0.4 0.9 -1.49012e-08
v -0.3 0.2 -1.49012e-08
v -0.3 0.3 -1.49012e-08
v -0.3 0.4 -1.49012e-08
v -0.3 0.5 -1.49012e-08
v -0.3 0.6 -1.49012e-08
v -0.3 0.7 -1.49012e-08
v -0.3 0.8 -1.49012e-08
v -0.3 0.9 -1.49012e-08
v -0.2 0.2 -1.49012e-08
v -0.2 0.3 -1.49012e-08
v -0.2 0.4 -1.49012e-08
v -0.2 0.5 -1.49012e-08
v -0.2 0.8 -1.49012e-08
v -0.2 0.9 -1.49012e-08
v -0.2 1 -1.49012e-08
v -0.1 0.2 -1.49012e-08
v -0.1 0.3 -1.49012e-08
v -0.1 0.4 -1.49012e-08
v -0.1 0.5 -1.49012e-08
v -0.1 0.6 -1.49012e-08
v -0.1 1 -1.49012e-08
v -0.1 1.1 -1.49012e-08
v 0 0.2 -1.49012e-08
v 0 0.3 -1.49012e-08
v 0 0.4 -1.49012e-08
v 0 0.5 -1.49012e-08
v 0 0.6 -1.49012e-08
v 0 0.8 -1.49012e-08
v 0 0.9 -1.49012e-08
v 0 1 -1.49012e-08
v 0 1.1 -1.49012e-08
v 0.1 0.2 -1.49012e-08
v 0.1 0.3 -1.49012e-08
v 0.1 0.4 -1.49012e-08
v 0.1 0.5 -1.49012e-08
v 0.1 0.6 -1.49012e-08
v 0.1 0.7 -1.49012e-08
v 0.1 0.8 -1.49012e-08
v 0.1 0.9 -1.49012e-08
v 0.1 1 -1.49012e-08
v 0.2 0.6 -1.49012e-08
v 0.2 0.7 -1.49012e-08
v 0.2 0.9 -1.49012e-08
v -0.4 0.2 -0.1
v -0.4 0.3 -0.1
v -0.4 0.6 -0.1
v -0.3 0 -0.1
v -0.3 0.1 -0.1
v -0.3 0.2 -0.1
v -0.3 0.3 -0.1
v -0.3 0.4 -0.1
v -0.3 0.5 -0.1
v -0.3 0.6 -0.1
v -0.2 0 -0.1
v -0.2 0.1 -0.1
v -0.2 0.2 -0.1
v 0 0 -0.1
v 0 0.1 -0.1
v 0 0.2 -0.1
v 0.1 0 -0.1
v 0.1 0.1 -0.1
v 0.1 0.2 -0.1
v 0.1 0.3 -0.1
v 0.1 0.4 -0.1
v 0.1 0.5 -0.1
v 0.1 0.6 -0.1
v 0.2 0.2 -0.1
v 0.2 0.3 -0.1
v 0.2 0.4 -0.1
v 0.2 0.5 -0.1
v 0.2 0.6 -0.1
v 0.2 0.8 -0.1
v 0.2 0.9 -0.1
v 0.3 0.8 -0.1
v 0.3 0.9 -0.1
v -0.5 0.8 -0.2
v -0.5 0.9 -0.2
v -0.4 0.2 -0.2
v -0.4 0.3 -0.2
v -0.4 0.5 -0.2
v -0.4 0.8 -0.2
v -0.4 0.9 -0.2
v -0.3 0 -0.2
v -0.3 0.1 -0.2
v -0.3 0.2 -0.2
v -0.3 0.3 -0.2
v -0.3 0.4 -0.2
v -0.3 0.5 -0.2
v -0.3 1 -0.2
v -0.3 1.1 -0.2
v -0.2 0 -0.2
v -0.2 0.1 -0.2
v -0.2 0.2 -0.2
v 0 0 -0.2
v 0 0.1 -0.2
v 0 0.2 -0.2
v 0 1 -0.2
v 0 1.1 -0.2
v 0.1 0 -0.2
v 0.1 0.1 -0.2
v 0.1 0.2 -0.2
v 0.1 0.3 -0.2
v 0.1 0.4 -0.2
v 0.1 0.5 -0.2
v 0.2 0.2 -0.2
v 0.2 0.3 -0.2
v 0.2 0.4 -0.2
v 0.2 0.5 -0.2
v -0.4 0.5 -0.3
v -0.4 0.6 -0.3
v -0.4 0.7 -0.3
v -0.4 0.8 -0.3
v -0.4 0.9 -0.3
v -0.4 1 -0.3
v -0.3 0.2 -0.3
v -0.3 0.3 -0.3
v -0.3 0.4 -0.3
v -0.3 0.5 -0.3
v -0.3 0.6 -0.3
v -0.3 0.7 -0.3
v -0.3 0.8 -0.3
v -0.2 0.2 -0.3
v -0.2 0.3 -0.3
v -0.2 0.4 -0.3
v -0.2 0.5 -0.3
v -0.1 0.2 -0.3
v -0.1 0.3 -0.3
v -0.1 0.4 -0.3
v -0.1 0.5 -0.3
v -0.1 0.6 -0.3
v 0 0.3 -0.3
v 0 0.4 -0.3
v 0 0.5 -0.3
v 0 0.6 -0.3
v 0.1 0.2 -0.3
v 0.1 0.3 -0.3
v 0.1 0.4 -0.3
v 0.1 0.5 -0.3
v 0.1 0.6 -0.3
v 0.2 0.5 -0.3
v 0.2 0.6 -0.3
v 0.2 0.8 -0.3
v 0.2 0.9 -0.3
v 0.2 1 -0.3
v 0.3 0.8 -0.3
v 0.3 0.9 -0.3
v -0.4 0.6 -0.4
v -0.4 0.7 -0.4
v -0.4 0.8 -0.4
v -0.4 0.9 -0.4
v -0.3 0.7 -0.4
v -0.3 0.8 -0.4
v -0.2 0.8 -0.4
v -0.2 0.9 -0.4
v 0 0.8 -0.4
v 0 0.9 -0.4
v 0.2 0.6 -0.4
v 0.2 0.7 -0.4
v 0.2 0.9 -0.4
v -0.2 0.8 -0.5
v -0.2 0.9 -0.5
v 0 0.8 -0.5
v 0 0.9 -0.5
v -0.3 0 -0.1
v -0.2 0 -0.1
v 0 0 -0.1
v 0.1 0 -0.1
v -0.3 0 -0.2
v -0.2 0 -0.2
v 0 0 -0.2
v 0.1 0 -0.2
v -0.3 0.2 -1.49012e-08
v -0.2 0.2 -1.49012e-08
v -0.1 0.2 -1.49012e-08
v 0 0.2 -1.49012e-08
v 0.1 0.2 -1.49012e-08
v -0.4 0.2 -0.1
v -0.3 0.2 -0.1
v -0.2 0.2 -0.1
v -0.1 0.2 -0.1
v 0 0.2 -0.1
v 0.1 0.2 -0.1
v 0.2 0.2 -0.1
v -0.4 0.2 -0.2
v -0.3 0.2 -0.2
v -0.2 0.2 -0.2
v -0.1 0.2 -0.2
v 0 0.2 -0.2
v 0.1 0.2 -0.2
v 0.2 0.2 -0.2
v -0.3 0.2 -0.3
v -0.2 0.2 -0.3
v -0.1 0.2 -0.3
v 0.1 0.2 -0.3
v -0.4 0.5 -0.2
v -0.3 0.5 -0.2
v 0.1 0.5 -0.2
v 0.2 0.5 -0.2
v -0.4 0.5 -0.3
v -0.3 0.5 -0.3
v 0.1 0.5 -0.3
v 0.2 0.5 -0.3
v -0.3 0.6 0.1
v 0.1 0.6 0.1
v -0.4 0.6 -1.49012e-08
v -0.3 0.6 -1.49012e-08
v -0.1 0.6 -1.49012e-08
v 0 0.6 -1.49012e-08
v 0.1 0.6 -1.49012e-08
v 0.2 0.6 -1.49012e-08
v -0.4 0.6 -0.1
v -0.3 0.6 -0.1
v 0.1 0.6 -0.1
v 0.2 0.6 -0.1
v -0.4 0.6 -0.3
v -0.3 0.6 -0.3
v -0.1 0.6 -0.3
v 0 0.6 -0.3
v 0.1 0.6 -0.3
v 0.2 0.6 -0.3
v -0.4 0.6 -0.4
v 0.2 0.6 -0.4
v -0.5 0.8 -1.49012e-08
v -0.4 0.8 -1.49012e-08
v 0.2 0.8 -0.1
v 0.3 0.8 -0.1
v -0.5 0.8 -0.2
v -0.4 0.8 -0.2
v -0.4 0.8 -0.3
v -0.3 0.8 -0.3
v 0.2 0.8 -0.3
v 0.3 0.8 -0.3
v -0.4 0.8 -0.4
v -0.3 0.8 -0.4
v -0.2 0.8 -0.4
v 0 0.8 -0.4
v -0.2 0.8 -0.5
v 0 0.8 -0.5
v -0.4 0.9 0.1
v -0.2 0.9 0.1
v 0.1 0.9 0.1
v 0.2 0.9 0.1
v -0.4 0.9 -1.49012e-08
v -0.3 0.9 -1.49012e-08
v -0.2 0.9 -1.49012e-08
v 0.1 0.9 -1.49012e-08
v 0.2 0.9 -1.49012e-08
v -0.2 1 0.1
v -0.1 1 0.1
v -0.2 1 -1.49012e-08
v -0.1 1 -1.49012e-08
v -0.3 0.7 0.1
v 0.1 0.7 0.1
v -0.3 0.7 -1.49012e-08
v 0.1 0.7 -1.49012e-08
v -0.4 0.7 -0.3
v -0.3 0.7 -0.3
v -0.4 0.7 -0.4
v -0.3 0.7 -0.4
v -0.5 0.9 -1.49012e-08
v -0.4 0.9 -1.49012e-08
v 0.2 0.9 -0.1
v 0.3 0.9 -0.1
v -0.5 0.9 -0.2
v -0.4 0.9 -0.2
v -0.4 0.9 -0.3
v 0.2 0.9 -0.3
v 0.3 0.9 -0.3
v -0.4 0.9 -0.4
v -0.2 0.9 -0.4
v 0 0.9 -0.4
v 0.2 0.9 -0.4
v -0.2 0.9 -0.5
v 0 0.9 -0.5
v -0.4 1 0.1
v -0.3 1 0.1
v 0.1 1 0.1
v 0.2 1 0.1
v 0 1 -1.49012e-08
v 0.1 1 -1.49012e-08
v -0.3 1 -0.2
v 0 1 -0.2
v -0.4 1 -0.3
v 0.2 1 -0.3
v -0.3 1.1 0.1
v -0.1 1.1 0.1
v -0.1 1.1 -1.49012e-08
v 0 1.1 -1.49012e-08
v -0.3 1.1 -0.2
v 0 1.1 -0.2

# faces
f 3/4/1 2/4/1 1/4/1
f 4/4/1 2/4/1 3/4/1
f 7/1/1 6/1/1 5/1/1
f 8/1/1 6/1/1 7/1/1
f 9/2/1 8/2/1 7/2/1
f 12/2/1 9/2/1 7/2/1
f 13/3/1 10/3/1 9/3/1
f 13/2/1 9/2/1 12/2/1
f 14/3/1 10/3/1 13/3/1
f 16/3/1 12/3/1 11/3/1
f 16/3/1 15/3/1 14/3/1
f 16/3/1 14/3/1 13/3/1
f 16/3/1 13/3/1 12/3/1
f 17/3/1 15/3/1 16/3/1
f 18/3/1 15/3/1 17/3/1
f 19/4/1 17/4/1 16/4/1
f 20/4/1 17/4/1 19/4/1
f 21/4/1 17/4/1 20/4/1
f 25/4/1 22/4/1 21/4/1
f 25/4/1 21/4/1 20/4/1
f 26/4/1 22/4/1 25/4/1
f 27/4/1 22/4/1 26/4/1
f 28/4/1 24/4/1 23/4/1
f 28/4/1 25/4/1 24/4/1
f 28/4/1 26/4/1 25/4/1
f 29/4/1 26/4/1 28/4/1
f 32/7/1 31/7/1 30/7/1
f 33/7/1 31/7/1 32/7/1
f 35/3/1 33/3/1 32/3/1
f 36/3/1 33/3/1 35/3/1
f 38/2/1 35/2/1 34/2/1
f 39/2/1 35/2/1 38/2/1
f 40/2/1 37/2/1 36/2/1
f 41/2/1 37/2/1 40/2/1
f 42/5/1 39/5/1 38/5/1
f 43/5/1 39/5/1 42/5/1
f 44/6/1 41/6/1 40/6/1
f 45/6/1 41/6/1 44/6/1
f 46/6/1 43/6/1 42/6/1
f 47/6/1 43/6/1 46/6/1
f 48/2/1 45/2/1 44/2/1
f 49/2/1 45/2/1 48/2/1
f 51/2/1 47/2/1 46/2/1
f 52/2/1 47/2/1 51/2/1
f 53/3/1 51/3/1 50/3/1
f 54/3/1 51/3/1 53/3/1
f 57/4/1 56/4/1 55/4/1
f 58/4/1 56/4/1 57/4/1
f 61/4/1 60/4/1 59/4/1
f 62/4/1 60/4/1 61/4/1
f 65/4/1 64/4/1 63/4/1
f 66/4/1 64/4/1 65/4/1
f 69/7/1 68/7/1 67/7/1
f 70/7/1 68/7/1 69/7/1
f 71/3/1 70/3/1 69/3/1
f 72/3/1 70/3/1 71/3/1
f 75/4/1 74/4/1 73/4/1
f 76/4/1 74/4/1 75/4/1
f 77/7/2 78/7/2 79/7/2
f 79/7/2 78/7/2 80/7/2
f 79/3/2 80/3/2 81/3/2
f 81/3/2 80/3/2 82/3/2
f 83/4/2 84/4/2 85/4/2
f 85/4/2 84/4/2 86/4/2
f 87/4/2 88/4/2 89/4/2
f 89/4/2 88/4/2 90/4/2
f 91/4/2 92/4/2 93/4/2
f 93/4/2 92/4/2 94/4/2
f 95/4/2 96/4/2 97/4/2
f 97/4/2 96/4/2 98/4/2
f 99/7/2 100/7/2 101/7/2
f 101/7/2 100/7/2 102/7/2
f 101/3/2 102/3/2 104/3/2
f 104/3/2 102/3/2 105/3/2
f 103/5/2 104/5/2 107/5/2
f 107/5/2 104/5/2 108/5/2
f 105/2/2 106/2/2 109/2/2
f 109/2/2 106/2/2 110/2/2
f 107/2/2 108/2/2 111/2/2
f 111/2/2 108/2/2 112/2/2
f 109/6/2 110/6/2 113/6/2
f 113/6/2 110/6/2 114/6/2
f 111/6/2 112/6/2 115/6/2
f 115/6/2 112/6/2 116/6/2
f 113/5/2 114/5/2 117/5/2
f 117/5/2 114/5/2 118/5/2
f 115/2/2 116/2/2 120/2/2
f 120/2/2 116/2/2 121/2/2
f 119/3/2 120/3/2 122/3/2
f 122/3/2 120/3/2 123/3/2
f 124/1/2 125/1/2 126/1/2
f 126/1/2 125/1/2 127/1/2
f 126/2/2 127/2/2 128/2/2
f 128/2/2 127/2/2 129/2/2
f 128/5/2 129/5/2 130/5/2
f 130/5/2 129/5/2 131/5/2
f 130/2/2 131/2/2 134/2/2
f 131/3/2 132/3/2 135/3/2
f 134/2/2 131/2/2 135/2/2
f 135/3/2 132/3/2 136/3/2
f 133/3/2 134/3/2 138/3/2
f 136/3/2 137/3/2 138/3/2
f 135/3/2 136/3/2 138/3/2
f 134/3/2 135/3/2 138/3/2
f 138/3/2 137/3/2 139/3/2
f 138/4/2 139/4/2 140/4/2
f 140/4/2 139/4/2 141/4/2
f 138/4/2 140/4/2 143/4/2
f 143/4/2 140/4/2 144/4/2
f 141/4/2 139/4/2 145/4/2
f 145/4/2 139/4/2 146/4/2
f 143/4/2 144/4/2 147/4/2
f 142/4/2 143/4/2 147/4/2
f 144/4/2 145/4/2 147/4/2
f 147/4/2 145/4/2 148/4/2
f 149/4/2 150/4/2 151/4/2
f 151/4/2 150/4/2 152/4/2
f 157/4/3 154/4/3 153/4/3
f 159/4/3 157/4/3 153/4/3
f 159/4/3 158/4/3 157/4/3
f 160/4/3 158/4/3 159/4/3
f 161/4/3 158/4/3 160/4/3
f 162/4/3 158/4/3 161/4/3
f 163/3/3 156/3/3 155/3/3
f 164/3/3 156/3/3 163/3/3
f 167/4/3 166/4/3 165/4/3
f 168/4/3 166/4/3 167/4/3
f 173/4/3 170/4/3 169/4/3
f 174/4/3 170/4/3 173/4/3
f 179/3/3 172/3/3 171/3/3
f 180/4/3 173/4/3 172/4/3
f 180/4/3 174/4/3 173/4/3
f 180/3/3 172/3/3 179/3/3
f 181/4/3 174/4/3 180/4/3
f 182/4/3 174/4/3 181/4/3
f 183/2/3 176/2/3 175/2/3
f 184/5/3 177/5/3 176/5/3
f 184/2/3 176/2/3 183/2/3
f 185/6/3 178/6/3 177/6/3
f 185/5/3 177/5/3 184/5/3
f 186/2/3 179/2/3 178/2/3
f 186/6/3 178/6/3 185/6/3
f 187/7/3 182/7/3 181/7/3
f 187/1/3 181/1/3 180/1/3
f 188/7/3 182/7/3 187/7/3
f 190/6/3 184/6/3 183/6/3
f 191/2/3 185/2/3 184/2/3
f 191/6/3 184/6/3 190/6/3
f 192/5/3 186/5/3 185/5/3
f 192/2/3 185/2/3 191/2/3
f 193/2/3 179/2/3 186/2/3
f 193/5/3 186/5/3 192/5/3
f 194/2/3 179/2/3 193/2/3
f 195/4/3 189/4/3 188/4/3
f 197/2/3 191/2/3 190/2/3
f 198/6/3 192/6/3 191/6/3
f 198/2/3 191/2/3 197/2/3
f 199/2/3 193/2/3 192/2/3
f 199/6/3 192/6/3 198/6/3
f 200/5/3 194/5/3 193/5/3
f 200/2/3 193/2/3 199/2/3
f 201/5/3 194/5/3 200/5/3
f 202/1/3 188/1/3 187/1/3
f 202/1/3 187/1/3 180/1/3
f 203/4/3 196/4/3 195/4/3
f 203/1/3 188/1/3 202/1/3
f 203/4/3 195/4/3 188/4/3
f 204/4/3 196/4/3 203/4/3
f 205/4/3 196/4/3 204/4/3
f 206/5/3 198/5/3 197/5/3
f 207/2/3 199/2/3 198/2/3
f 207/5/3 198/5/3 206/5/3
f 208/6/3 200/6/3 199/6/3
f 208/2/3 199/2/3 207/2/3
f 209/2/3 201/2/3 200/2/3
f 209/6/3 200/6/3 208/6/3
f 210/2/3 201/2/3 209/2/3
f 211/1/3 202/1/3 180/1/3
f 212/7/3 203/7/3 202/7/3
f 212/1/3 202/1/3 211/1/3
f 213/4/3 204/4/3 203/4/3
f 213/7/3 203/7/3 212/7/3
f 214/4/3 204/4/3 213/4/3
f 215/3/3 211/3/3 210/3/3
f 216/4/3 213/4/3 212/4/3
f 216/3/3 211/3/3 215/3/3
f 216/4/3 212/4/3 211/4/3
f 217/4/3 213/4/3 216/4/3
f 223/1/3 219/1/3 218/1/3
f 224/2/3 220/2/3 219/2/3
f 224/1/3 219/1/3 223/1/3
f 225/2/3 220/2/3 224/2/3
f 226/2/3 220/2/3 225/2/3
f 227/2/3 220/2/3 226/2/3
f 228/7/3 222/7/3 221/7/3
f 229/3/3 223/3/3 222/3/3
f 229/7/3 222/7/3 228/7/3
f 230/3/3 223/3/3 229/3/3
f 234/7/3 232/7/3 231/7/3
f 235/3/3 233/3/3 232/3/3
f 235/7/3 232/7/3 234/7/3
f 236/3/3 233/3/3 235/3/3
f 241/1/3 237/1/3 236/1/3
f 242/2/3 238/2/3 237/2/3
f 242/1/3 237/1/3 241/1/3
f 243/5/3 239/5/3 238/5/3
f 243/2/3 238/2/3 242/2/3
f 244/2/3 240/2/3 239/2/3
f 244/5/3 239/5/3 243/5/3
f 245/2/3 240/2/3 244/2/3
f 248/4/3 247/4/3 246/4/3
f 249/4/3 247/4/3 248/4/3
f 250/4/4 251/4/4 255/4/4
f 255/4/4 251/4/4 256/4/4
f 252/1/4 253/1/4 259/1/4
f 253/2/4 254/2/4 260/2/4
f 259/1/4 253/1/4 260/1/4
f 260/2/4 254/2/4 261/2/4
f 261/2/4 254/2/4 262/2/4
f 257/7/4 258/7/4 265/7/4
f 258/3/4 259/3/4 266/3/4
f 265/7/4 258/7/4 266/7/4
f 266/3/4 259/3/4 267/3/4
f 263/4/4 264/4/4 271/4/4
f 271/4/4 264/4/4 272/4/4
f 268/7/4 269/7/4 273/7/4
f 269/3/4 270/3/4 274/3/4
f 273/7/4 269/7/4 274/7/4
f 274/3/4 270/3/4 275/3/4
f 275/1/4 276/1/4 279/1/4
f 276/2/4 277/2/4 280/2/4
f 279/1/4 276/1/4 280/1/4
f 277/5/4 278/5/4 281/5/4
f 280/2/4 277/2/4 281/2/4
f 281/5/4 278/5/4 282/5/4
f 283/3/4 284/3/4 292/3/4
f 292/3/4 284/3/4 293/3/4
f 285/4/4 286/4/4 294/4/4
f 294/4/4 286/4/4 295/4/4
f 289/2/4 290/2/4 296/2/4
f 290/6/4 291/6/4 297/6/4
f 296/2/4 290/2/4 297/2/4
f 292/2/4 293/2/4 298/2/4
f 297/6/4 291/6/4 298/6/4
f 291/2/4 292/2/4 298/2/4
f 298/2/4 293/2/4 299/2/4
f 296/5/4 297/5/4 300/5/4
f 297/2/4 298/2/4 301/2/4
f 300/5/4 297/5/4 301/5/4
f 298/6/4 299/6/4 302/6/4
f 301/2/4 298/2/4 302/2/4
f 299/2/4 293/2/4 303/2/4
f 302/6/4 299/6/4 303/6/4
f 303/2/4 293/2/4 304/2/4
f 301/2/4 302/2/4 305/2/4
f 300/2/4 301/2/4 305/2/4
f 302/2/4 303/2/4 305/2/4
f 305/2/4 303/2/4 306/2/4
f 303/5/4 304/5/4 307/5/4
f 306/2/4 303/2/4 307/2/4
f 307/5/4 304/5/4 308/5/4
f 300/2/4 305/2/4 309/2/4
f 305/6/4 306/6/4 310/6/4
f 309/2/4 305/2/4 310/2/4
f 306/5/4 307/5/4 311/5/4
f 310/6/4 306/6/4 311/6/4
f 307/2/4 308/2/4 312/2/4
f 311/5/4 307/5/4 312/5/4
f 312/2/4 308/2/4 313/2/4
f 312/3/4 313/3/4 314/3/4
f 314/3/4 313/3/4 315/3/4
f 287/4/4 288/4/4 317/4/4
f 317/4/4 288/4/4 318/4/4
f 316/4/4 317/4/4 319/4/4
f 319/4/4 317/4/4 320/4/4
f 321/3/4 322/3/4 325/3/4
f 323/4/4 324/4/4 326/4/4
f 326/4/4 324/4/4 327/4/4
f 325/4/4 326/4/4 327/4/4
f 327/4/4 324/4/4 328/4/4
f 325/4/4 327/4/4 329/4/4
f 321/3/4 325/3/4 331/3/4
f 329/4/4 330/4/4 332/4/4
f 331/3/4 325/3/4 332/3/4
f 325/4/4 329/4/4 332/4/4
f 332/4/4 330/4/4 333/4/4
f 334/4/4 335/4/4 336/4/4
f 336/4/4 335/4/4 337/4/4
f 342/7/5 339/7/5 338/7/5
f 343/7/5 339/7/5 342/7/5
f 344/7/5 341/7/5 340/7/5
f 345/7/5 341/7/5 344/7/5
f 352/2/5 347/2/5 346/2/5
f 353/6/5 348/6/5 347/6/5
f 353/2/5 347/2/5 352/2/5
f 354/2/5 349/2/5 348/2/5
f 354/6/5 348/6/5 353/6/5
f 355/5/5 350/5/5 349/5/5
f 355/2/5 349/2/5 354/2/5
f 356/5/5 350/5/5 355/5/5
f 358/1/5 352/1/5 351/1/5
f 359/1/5 352/1/5 358/1/5
f 360/2/5 354/2/5 353/2/5
f 360/2/5 355/2/5 354/2/5
f 361/2/5 355/2/5 360/2/5
f 362/2/5 355/2/5 361/2/5
f 363/1/5 357/1/5 356/1/5
f 364/1/5 357/1/5 363/1/5
f 365/2/5 360/2/5 359/2/5
f 366/5/5 361/5/5 360/5/5
f 366/2/5 360/2/5 365/2/5
f 367/2/5 362/2/5 361/2/5
f 367/5/5 361/5/5 366/5/5
f 367/2/5 363/2/5 362/2/5
f 368/2/5 363/2/5 367/2/5
f 373/3/5 370/3/5 369/3/5
f 374/3/5 370/3/5 373/3/5
f 375/3/5 372/3/5 371/3/5
f 376/3/5 372/3/5 375/3/5
f 380/3/5 378/3/5 377/3/5
f 381/3/5 378/3/5 380/3/5
f 382/3/5 378/3/5 381/3/5
f 383/3/5 378/3/5 382/3/5
f 385/3/5 380/3/5 379/3/5
f 386/3/5 380/3/5 385/3/5
f 387/3/5 384/3/5 383/3/5
f 388/3/5 384/3/5 387/3/5
f 395/3/5 390/3/5 389/3/5
f 395/3/5 394/3/5 393/3/5
f 395/3/5 393/3/5 392/3/5
f 395/3/5 392/3/5 391/3/5
f 395/3/5 391/3/5 390/3/5
f 396/3/5 394/3/5 395/3/5
f 401/4/5 398/4/5 397/4/5
f 402/4/5 398/4/5 401/4/5
f 405/4/5 400/4/5 399/4/5
f 406/4/5 400/4/5 405/4/5
f 407/4/5 404/4/5 403/4/5
f 408/4/5 404/4/5 407/4/5
f 411/4/5 410/4/5 409/4/5
f 412/4/5 410/4/5 411/4/5
f 417/4/5 414/4/5 413/4/5
f 418/4/5 414/4/5 417/4/5
f 419/4/5 414/4/5 418/4/5
f 420/4/5 416/4/5 415/4/5
f 421/4/5 416/4/5 420/4/5
f 424/4/5 423/4/5 422/4/5
f 425/4/5 423/4/5 424/4/5
f 426/3/6 427/3/6 428/3/6
f 428/3/6 427/3/6 429/3/6
f 430/3/6 431/3/6 432/3/6
f 432/3/6 431/3/6 433/3/6
f 434/4/6 435/4/6 438/4/6
f 438/4/6 435/4/6 439/4/6
f 436/4/6 437/4/6 441/4/6
f 441/4/6 437/4/6 442/4/6
f 440/4/6 441/4/6 443/4/6
f 443/4/6 441/4/6 444/4/6
f 444/4/6 441/4/6 445/4/6
f 445/4/6 441/4/6 446/4/6
f 444/4/6 445/4/6 447/4/6
f 447/4/6 445/4/6 448/4/6
f 451/4/6 452/4/6 454/4/6
f 449/4/6 450/4/6 455/4/6
f 453/4/6 454/4/6 456/4/6
f 449/4/6 455/4/6 457/4/6
f 455/4/6 456/4/6 457/4/6
f 456/4/6 454/4/6 458/4/6
f 457/4/6 456/4/6 458/4/6
f 454/4/6 452/4/6 458/4/6
f 459/4/6 460/4/6 461/4/6
f 459/4/6 461/4/6 463/4/6
f 461/4/6 462/4/6 463/4/6
f 463/4/6 462/4/6 464/4/6
